<?xml version="1.0" standalone="no"?>
<!DOCTYPE svg PUBLIC "-//W3C//DTD SVG 20010904//EN"
 "http://www.w3.org/TR/2001/REC-SVG-20010904/DTD/svg10.dtd">
<svg version="1.0" xmlns="http://www.w3.org/2000/svg"
 width="820.000000pt" height="465.000000pt" viewBox="0 0 820.000000 465.000000"
 preserveAspectRatio="xMidYMid meet">

<g transform="translate(0.000000,465.000000) scale(0.100000,-0.100000)"
fill="#fff" stroke="none">
<path d="M3006 4071 c-5 -8 31 -414 39 -438 2 -7 15 -13 28 -13 20 0 25 6 31
38 3 20 6 57 7 82 1 82 16 92 23 15 13 -133 14 -137 44 -133 l27 3 17 185 c9
102 19 199 21 216 6 38 -4 57 -29 52 -21 -4 -31 -55 -33 -155 -1 -72 -21 -67
-22 5 -1 103 -11 147 -35 150 -27 4 -34 -19 -34 -118 0 -113 -16 -118 -24 -8
-4 51 -9 101 -12 111 -5 18 -39 24 -48 8z"/>
<path d="M3267 4073 c-4 -3 -7 -107 -7 -230 l0 -224 68 3 67 3 0 45 c0 45 0
45 -35 45 -34 0 -35 1 -38 43 -3 39 -1 42 22 42 31 0 43 20 38 65 -4 29 -8 35
-28 35 -28 0 -39 19 -30 55 5 19 13 25 35 25 25 0 30 5 35 34 11 56 1 66 -63
66 -32 0 -61 -3 -64 -7z"/>
<path d="M3418 4063 c-2 -9 -2 -112 0 -230 l3 -213 53 0 c77 0 92 19 89 119
-1 42 -2 124 -2 184 0 101 -2 109 -25 132 -31 31 -112 37 -118 8z m85 -95 c7
-27 -2 -68 -14 -68 -5 0 -9 20 -9 45 0 47 14 61 23 23z m1 -174 c13 -34 3 -94
-15 -94 -5 0 -9 25 -9 55 0 53 11 72 24 39z"/>
<path d="M3616 4067 c-42 -31 -42 -151 0 -213 13 -19 24 -39 24 -43 0 -5 7
-14 15 -21 18 -15 21 -84 3 -78 -7 3 -15 15 -18 29 -4 17 -14 25 -33 27 -24 3
-27 0 -27 -25 0 -47 20 -102 40 -113 30 -16 65 -12 86 11 15 17 19 36 19 103
0 81 -1 84 -43 146 -23 35 -41 71 -40 79 5 25 25 23 32 -4 4 -16 13 -25 27
-25 25 0 33 21 25 66 -12 63 -66 93 -110 61z"/>
<path d="M3750 3851 l0 -231 30 0 30 0 -2 228 -3 227 -27 3 -28 3 0 -230z"/>
<path d="M3824 4055 c-9 -36 3 -72 26 -78 19 -5 20 -13 20 -181 l0 -176 30 0
30 0 0 175 0 175 25 10 c19 7 25 17 25 39 0 56 -6 61 -81 61 -65 0 -69 -1 -75
-25z"/>
<path d="M3997 4073 c-4 -3 -7 -107 -7 -230 l0 -224 68 3 67 3 0 45 c0 45 0
45 -35 45 -34 0 -35 1 -38 42 -3 39 -1 42 25 45 26 3 28 7 31 51 3 45 2 47
-23 47 -29 0 -40 19 -31 56 5 20 12 25 33 22 21 -2 28 2 36 25 5 15 6 39 3 52
-6 23 -11 25 -65 25 -32 0 -61 -3 -64 -7z"/>
<path d="M4234 4066 c-3 -8 -4 -103 -2 -211 3 -193 3 -197 27 -216 30 -25 63
-24 87 2 15 17 19 45 26 170 9 188 1 264 -27 264 -19 0 -20 -8 -23 -170 -2
-190 -6 -211 -28 -180 -11 15 -14 53 -13 177 0 86 -2 162 -6 168 -9 15 -35 12
-41 -4z"/>
<path d="M4406 4072 c-3 -5 -5 -96 -6 -203 -2 -271 -4 -251 23 -247 21 3 22 8
25 96 2 53 7 92 13 92 5 0 9 -6 8 -12 -3 -16 11 -147 18 -165 3 -7 16 -13 29
-13 l24 0 0 225 c0 198 -2 226 -16 232 -26 10 -34 -17 -29 -94 3 -44 1 -73 -5
-73 -10 0 -16 19 -25 95 -4 28 -12 56 -17 63 -12 14 -34 16 -42 4z"/>
<path d="M4576 4072 c-4 -7 -9 -345 -6 -441 0 -10 12 -12 51 -9 79 8 87 28 88
226 1 145 -11 207 -41 216 -35 11 -87 16 -92 8z m75 -224 c1 -127 -5 -164 -22
-137 -10 16 -12 263 -2 273 16 16 22 -18 24 -136z"/>
<path d="M4742 4066 c-8 -12 -13 -401 -6 -428 4 -13 17 -16 67 -15 l62 2 3 42
3 42 -38 3 c-37 3 -38 4 -41 46 -3 40 -2 43 27 48 29 6 31 9 31 50 0 42 -1 44
-31 44 -29 0 -30 2 -27 38 3 34 6 37 35 40 26 3 33 9 38 32 12 55 1 68 -60 68
-31 0 -59 -6 -63 -12z"/>
<path d="M4900 4065 c-7 -8 -9 -94 -8 -226 l3 -214 28 -3 27 -3 0 95 c0 53 4
96 9 96 15 0 21 -28 21 -91 0 -70 12 -99 42 -99 20 0 21 3 14 103 -4 56 -7
113 -6 127 8 105 3 192 -12 207 -20 19 -104 25 -118 8z m81 -110 c4 -49 0 -65
-16 -65 -11 0 -15 12 -15 48 0 70 25 84 31 17z"/>
<path d="M5194 4070 c-40 -15 -49 -53 -49 -219 0 -171 10 -217 51 -227 58 -15
84 23 87 127 2 63 1 64 -25 67 -26 3 -27 1 -30 -50 -2 -29 -7 -52 -13 -50 -6
1 -10 54 -10 132 0 78 4 131 10 133 6 1 11 -20 13 -46 3 -52 21 -69 48 -46 13
10 14 24 9 68 -12 93 -41 129 -91 111z"/>
<path d="M5347 4068 c-29 -23 -37 -68 -37 -221 0 -180 12 -220 67 -225 56 -5
67 27 72 198 3 149 -6 216 -35 245 -19 18 -44 19 -67 3z m44 -120 c2 -18 3
-79 1 -135 -3 -99 -13 -129 -26 -80 -8 29 -8 211 0 231 10 26 22 18 25 -16z"/>
<path d="M5474 4067 c-2 -7 -3 -109 -2 -227 3 -213 3 -215 25 -218 21 -3 22 0
25 89 2 57 7 94 14 96 7 2 10 -5 7 -19 -2 -13 2 -54 10 -93 12 -64 15 -70 38
-70 l24 0 0 225 c0 218 -1 225 -20 225 -18 0 -20 -8 -25 -85 -5 -93 -14 -96
-25 -10 -10 77 -21 100 -45 100 -11 0 -23 -6 -26 -13z"/>
<path d="M5674 4057 c-38 -33 -44 -107 -15 -168 28 -57 46 -88 60 -102 14 -14
15 -74 1 -82 -6 -4 -17 10 -25 29 -21 50 -55 51 -55 1 0 -55 24 -103 56 -111
34 -9 54 4 76 47 33 64 19 139 -45 233 -27 39 -35 80 -18 91 6 3 16 -7 23 -22
7 -15 21 -29 31 -31 14 -3 17 4 17 43 0 35 -6 51 -25 70 -30 31 -47 31 -81 2z"/>
<path d="M5813 4074 c-7 -3 -13 -23 -13 -43 0 -31 5 -40 25 -49 l25 -12 0
-175 0 -175 24 0 c13 0 26 6 29 14 3 8 4 84 2 168 -2 84 -1 158 3 164 4 6 15
13 25 17 14 5 18 16 15 49 l-3 43 -60 2 c-33 1 -66 0 -72 -3z"/>
<path d="M5974 4066 c-2 -6 -3 -108 -2 -226 l3 -215 25 0 c25 0 25 1 28 93 2
81 5 92 17 82 11 -9 15 -33 15 -80 0 -84 6 -100 36 -100 23 0 24 3 23 58 0 31
-5 83 -10 115 -7 41 -7 69 1 92 13 39 4 146 -14 171 -15 20 -115 28 -122 10z
m81 -126 c0 -26 -5 -45 -12 -47 -9 -3 -13 10 -13 47 0 37 4 50 13 48 7 -3 12
-22 12 -48z"/>
<path d="M6142 4067 c-14 -17 -6 -369 10 -410 20 -52 91 -47 114 9 21 50 20
402 -1 410 -8 4 -22 0 -31 -7 -12 -10 -15 -35 -14 -133 3 -204 1 -228 -12
-224 -10 4 -14 53 -18 184 -4 153 -7 179 -21 182 -9 1 -21 -3 -27 -11z"/>
<path d="M6352 4069 c-43 -16 -54 -67 -50 -239 3 -177 14 -210 67 -210 41 0
61 29 71 103 11 78 6 97 -26 97 -22 0 -24 -4 -24 -49 0 -43 -12 -72 -25 -59
-4 3 -9 190 -6 241 2 44 25 27 31 -23 5 -45 15 -56 39 -41 18 12 16 99 -3 145
-15 36 -40 48 -74 35z"/>
<path d="M6467 4074 c-4 -4 -7 -24 -7 -44 0 -30 5 -39 25 -48 l26 -12 -1 -162
c0 -90 -1 -169 0 -175 0 -21 50 -16 50 5 1 9 1 88 0 175 l-1 157 26 10 c23 9
26 15 23 52 l-3 43 -65 3 c-36 2 -69 0 -73 -4z"/>
<path d="M6628 3859 c-2 -130 1 -224 7 -230 12 -12 45 -12 45 1 4 102 0 433
-5 440 -3 5 -15 10 -25 10 -18 0 -19 -11 -22 -221z"/>
<path d="M6748 4070 c-36 -21 -54 -172 -39 -323 10 -102 27 -130 75 -125 47 5
60 42 64 181 5 158 -3 223 -33 253 -26 26 -41 29 -67 14z m42 -225 c0 -125 -9
-167 -24 -112 -8 29 -8 211 0 231 16 42 24 4 24 -119z"/>
<path d="M6875 4068 c-3 -7 -4 -110 -3 -228 3 -214 3 -215 26 -218 21 -3 22
-1 22 86 0 49 3 92 7 96 4 4 14 -35 23 -86 14 -88 16 -93 40 -93 l25 0 0 225
c0 218 -1 225 -20 225 -18 0 -21 -9 -26 -85 -3 -47 -6 -83 -8 -80 -1 3 -10 41
-19 85 -15 69 -20 80 -40 83 -12 2 -24 -3 -27 -10z"/>
<path d="M2575 4042 c-6 -4 -28 -31 -49 -61 -28 -40 -35 -56 -26 -65 9 -8 20
-1 46 29 18 22 34 43 34 48 0 15 28 6 42 -15 8 -12 19 -18 26 -14 9 5 6 18 -8
47 -20 37 -42 48 -65 31z"/>
<path d="M2710 3785 c0 -25 23 -65 37 -65 20 0 15 27 -8 44 -12 8 -18 19 -14
25 3 6 1 11 -4 11 -6 0 -11 -7 -11 -15z"/>
<path d="M2348 3718 c-16 -14 -58 -72 -58 -82 0 -3 9 -6 20 -6 16 0 80 75 80
94 0 11 -26 6 -42 -6z"/>
<path d="M2780 3649 c0 -5 5 -7 10 -4 6 3 10 8 10 11 0 2 -4 4 -10 4 -5 0 -10
-5 -10 -11z"/>
<path d="M2787 3613 c-8 -15 52 -133 68 -133 20 0 20 0 -14 75 -27 60 -43 77
-54 58z"/>
<path d="M2265 3600 c-3 -5 3 -10 14 -10 12 0 21 5 21 10 0 6 -6 10 -14 10 -8
0 -18 -4 -21 -10z"/>
<path d="M1880 3058 c-329 -470 -345 -495 -348 -543 -3 -45 7 -75 116 -320 66
-148 177 -400 247 -560 70 -159 140 -317 155 -350 15 -33 87 -197 160 -365
132 -301 152 -340 175 -340 19 0 44 32 311 415 143 204 273 389 289 413 17 23
64 91 105 151 41 59 108 154 148 210 39 56 72 106 72 111 0 4 4 10 8 12 5 2
34 40 66 85 42 61 66 85 91 94 37 14 38 33 2 24 -20 -5 -22 -2 -23 37 -1 30
-27 100 -87 233 -46 105 -113 254 -147 333 -34 78 -67 145 -72 148 -33 21 -15
-37 73 -236 212 -477 212 -476 198 -515 -7 -19 -16 -35 -19 -35 -4 0 -48 -60
-99 -132 -118 -171 -151 -218 -550 -788 -184 -261 -336 -480 -338 -487 -3 -6
-11 -14 -19 -17 -17 -7 -38 35 -184 369 -51 116 -101 230 -112 255 -12 25 -29
64 -39 86 -9 23 -22 45 -28 48 -6 4 -11 15 -11 25 0 16 -54 141 -351 813 -60
136 -109 260 -109 275 0 19 24 62 73 130 39 57 103 147 140 200 38 54 116 166
174 248 58 83 112 167 120 188 9 21 23 42 32 47 9 4 50 54 90 111 56 78 70
104 59 110 -7 5 -15 9 -18 9 -3 0 -160 -222 -350 -492z"/>
<path d="M2910 3328 c0 -11 74 -184 168 -390 19 -43 41 -78 48 -78 8 0 14 4
14 10 0 26 -204 470 -216 470 -8 0 -14 -5 -14 -12z"/>
<path d="M2365 3136 c-24 -25 -39 -67 -50 -148 -7 -44 -5 -48 13 -48 21 0 32
-18 32 -51 0 -11 12 -30 27 -43 l26 -23 -18 -44 c-13 -33 -19 -75 -21 -164 -1
-66 -5 -132 -9 -147 -6 -22 -4 -28 9 -28 24 0 22 -141 -3 -197 -28 -60 -83
-85 -94 -41 -5 19 -8 20 -23 7 -9 -7 -27 -30 -40 -50 -15 -24 -32 -38 -53 -42
-28 -6 -32 -12 -61 -104 -36 -115 -52 -270 -29 -276 8 -3 77 -14 154 -27 77
-12 201 -35 275 -51 74 -16 151 -30 170 -32 19 -1 40 -7 45 -14 6 -7 33 -15
60 -19 42 -5 54 -3 75 15 21 17 23 22 10 31 -8 5 -27 10 -42 10 -35 0 -43 15
-40 75 2 32 -6 81 -21 135 -14 47 -28 108 -32 135 -11 80 -13 84 -53 88 l-37
3 33 14 c37 17 37 12 22 223 l-10 137 41 95 c22 53 45 122 51 154 l11 58 -61
81 c-34 44 -73 89 -88 101 -34 26 -86 36 -114 21 -12 -6 -25 -9 -28 -5 -4 4
-7 38 -7 76 0 55 -4 72 -20 88 -32 31 -73 34 -100 7z m265 -215 c0 -17 -25
-28 -72 -33 -53 -6 -55 6 -4 28 36 15 76 18 76 5z m40 -212 c0 -5 -4 -9 -10
-9 -5 0 -10 7 -10 16 0 8 5 12 10 9 6 -3 10 -10 10 -16z m-210 -126 c0 -5 -5
-15 -10 -23 -8 -12 -10 -11 -10 8 0 12 5 22 10 22 6 0 10 -3 10 -7z m40 -142
c0 -22 -6 -44 -15 -51 -13 -11 -15 -8 -15 21 0 45 10 80 21 73 5 -3 9 -22 9
-43z m-134 -302 c-12 -43 -35 -241 -36 -306 0 -18 -49 -48 -60 -37 -5 5 -18
51 -29 102 l-19 93 27 10 c52 18 56 24 59 88 3 54 6 63 26 71 13 5 26 16 30
26 15 38 16 3 2 -47z m203 24 c6 -21 17 -81 26 -133 9 -52 29 -133 46 -180 36
-104 36 -125 3 -146 -24 -16 -30 -16 -106 2 -45 10 -87 25 -95 32 -45 45 51
462 107 462 5 0 14 -17 19 -37z m184 -540 c-7 -2 -19 -2 -25 0 -7 3 -2 5 12 5
14 0 19 -2 13 -5z"/>
<path d="M1210 2892 c0 -5 -9 -160 -20 -343 -12 -183 -20 -346 -18 -363 l3
-31 210 -41 c116 -22 212 -39 214 -38 2 2 -5 25 -17 51 -219 518 -326 763
-332 763 -5 0 -15 3 -24 6 -9 3 -16 2 -16 -4z"/>
<path d="M1546 2798 c9 -18 18 -34 19 -36 1 -1 10 9 20 24 19 30 9 44 -33 44
-22 0 -22 -1 -6 -32z"/>
<path d="M2938 2543 c7 -3 16 -2 19 1 4 3 -2 6 -13 5 -11 0 -14 -3 -6 -6z"/>
<path d="M2190 2503 c0 -14 19 -38 25 -32 8 8 -5 39 -16 39 -5 0 -9 -3 -9 -7z"/>
<path d="M3440 2385 c0 -4 40 -93 47 -104 1 -2 14 4 28 13 15 10 33 15 42 12
25 -10 32 2 20 34 -12 31 -61 58 -72 39 -4 -5 -12 -6 -18 -2 -15 9 -47 15 -47
8z"/>
<path d="M3845 2329 c-4 -6 -2 -16 5 -22 10 -9 11 -9 6 0 -3 6 -1 13 6 15 9 3
9 6 1 11 -7 4 -15 2 -18 -4z"/>
<path d="M4055 2296 c-37 -10 -45 -15 -33 -20 19 -9 88 11 88 25 0 5 -1 9 -2
8 -2 0 -25 -7 -53 -13z"/>
<path d="M3567 2273 c-14 -13 -6 -20 18 -15 14 2 22 8 19 13 -6 11 -28 12 -37
2z"/>
<path d="M3500 2255 c0 -8 7 -15 16 -15 14 0 14 3 4 15 -7 8 -14 15 -16 15 -2
0 -4 -7 -4 -15z"/>
<path d="M4390 2244 c0 -9 7 -14 17 -12 25 5 28 28 4 28 -12 0 -21 -6 -21 -16z"/>
<path d="M2050 2201 c0 -17 5 -31 10 -31 6 0 10 11 10 24 0 14 -4 28 -10 31
-6 4 -10 -7 -10 -24z"/>
<path d="M3520 2209 c0 -6 5 -19 10 -30 9 -16 7 -19 -9 -19 -11 0 -23 -5 -27
-11 -4 -7 4 -10 22 -7 27 3 29 0 32 -36 3 -31 -4 -48 -38 -97 l-41 -58 52
-123 c28 -68 56 -128 62 -134 13 -12 277 -67 285 -59 3 3 -32 94 -78 202 -126
299 -138 323 -155 323 -8 0 -15 5 -15 10 0 6 -8 10 -17 10 -10 0 -29 9 -43 20
-28 22 -40 25 -40 9z"/>
<path d="M4407 2214 c-3 -3 4 -27 15 -52 11 -26 26 -62 34 -81 l14 -33 19 23
19 24 55 -19 c66 -22 90 -14 55 19 -14 12 -34 26 -46 29 -13 4 -22 16 -22 27
0 12 -7 19 -20 19 -22 0 -27 15 -7 23 6 3 2 6 -10 6 -12 1 -25 6 -28 11 -7 11
-68 14 -78 4z"/>
<path d="M3978 2203 c7 -3 16 -2 19 1 4 3 -2 6 -13 5 -11 0 -14 -3 -6 -6z"/>
<path d="M4125 2189 c-4 -6 -19 -10 -33 -9 -47 3 -53 1 -50 -22 2 -19 -2 -23
-23 -23 -15 0 -36 -8 -46 -17 -11 -10 -25 -18 -31 -18 -7 0 -12 -3 -12 -7 1
-23 23 -35 71 -40 62 -5 56 -2 61 -28 2 -14 -2 -20 -14 -19 -10 1 -16 -3 -15
-8 4 -20 -22 -19 -43 2 -12 12 -24 19 -27 17 -2 -3 5 -15 16 -26 21 -21 81
-29 81 -11 0 18 26 10 50 -15 19 -20 30 -24 51 -20 20 5 33 0 52 -19 29 -28
64 -29 59 0 -2 11 -19 33 -38 51 -30 27 -33 33 -19 40 14 8 14 14 -4 56 -11
26 -27 50 -36 53 -9 4 -15 19 -15 40 0 34 -21 47 -35 23z"/>
<path d="M4949 2148 c5 -13 62 -147 126 -298 65 -151 126 -295 135 -320 10
-25 32 -75 48 -111 l30 -66 141 -28 c78 -15 143 -26 146 -24 2 2 -74 186 -168
408 l-172 404 -140 28 c-77 15 -143 28 -147 28 -4 1 -4 -9 1 -21z"/>
<path d="M4661 2144 c0 -11 3 -14 6 -6 3 7 2 16 -1 19 -3 4 -6 -2 -5 -13z"/>
<path d="M3950 2140 c0 -5 5 -10 10 -10 6 0 10 5 10 10 0 6 -4 10 -10 10 -5 0
-10 -4 -10 -10z"/>
<path d="M3110 2091 c0 -5 5 -13 10 -16 6 -3 10 -2 10 4 0 5 -4 13 -10 16 -5
3 -10 2 -10 -4z"/>
<path d="M5512 2048 c3 -7 81 -191 174 -410 l168 -396 138 -27 c77 -14 143
-25 147 -23 4 2 -68 181 -160 398 -93 217 -170 399 -171 403 -2 4 -60 19 -128
32 -69 14 -136 27 -149 30 -17 4 -22 2 -19 -7z"/>
<path d="M3148 2028 c17 -8 26 -8 34 0 9 9 4 12 -22 11 -33 0 -34 -1 -12 -11z"/>
<path d="M2988 2003 c12 -2 30 -2 40 0 9 3 -1 5 -23 4 -22 0 -30 -2 -17 -4z"/>
<path d="M4732 1986 c-13 -16 -19 -32 -15 -42 6 -15 1 -16 -35 -10 -26 4 -42
2 -42 -4 0 -6 -25 -10 -57 -10 -44 0 -54 -3 -45 -12 7 -7 28 -12 47 -11 19 1
32 -3 29 -8 -3 -5 2 -6 10 -3 9 3 16 12 16 20 0 8 3 14 8 14 15 -1 54 -40 50
-52 -2 -6 23 -25 56 -42 50 -25 61 -35 59 -53 -2 -13 2 -23 7 -23 6 0 9 -12 8
-27 -4 -40 28 -44 37 -4 6 29 -20 100 -32 87 -4 -3 -12 3 -20 14 -8 11 -23 20
-34 20 -25 0 -24 12 2 28 16 11 19 19 13 45 -3 18 -14 47 -23 65 l-17 33 -22
-25z"/>
<path d="M6037 1939 c20 -21 21 -23 5 -47 -15 -24 -15 -25 19 -56 18 -17 48
-42 66 -56 25 -20 50 -70 128 -255 98 -232 165 -388 169 -392 6 -6 328 -65
332 -60 3 3 -11 22 -32 42 -29 29 -34 39 -23 46 11 7 9 10 -8 15 -12 3 -26 18
-32 32 -20 51 -18 57 14 54 17 -2 34 -8 39 -13 6 -5 17 -2 28 7 16 15 18 15
24 0 3 -9 16 -16 28 -16 11 0 36 -9 53 -20 18 -11 39 -17 47 -14 8 3 17 0 21
-6 9 -14 -14 -32 -32 -25 -7 2 -13 0 -13 -5 0 -18 5 -25 15 -21 29 11 64 -5
65 -31 0 -12 -82 -20 -93 -9 -20 20 -43 12 -45 -15 -1 -20 2 -25 14 -20 9 4
46 3 81 0 53 -6 66 -11 72 -27 10 -27 16 33 37 405 10 164 15 301 11 304 -9 9
-377 82 -377 75 0 -3 9 -30 20 -60 12 -29 19 -55 17 -58 -6 -5 -122 24 -159
40 -18 7 -30 22 -34 40 -6 29 -12 30 -57 12 -14 -6 -16 -4 -10 11 5 13 3 16
-9 12 -10 -4 -20 4 -31 28 -10 19 -26 36 -39 39 -13 3 -81 16 -153 30 -71 14
-141 27 -155 31 l-25 5 22 -22z m55 -77 c-15 -11 -17 -10 -20 8 -2 12 -1 29 3
38 5 14 9 13 20 -8 12 -22 12 -27 -3 -38z m573 -468 c8 3 17 1 21 -5 3 -5 14
-7 24 -4 12 4 19 -1 23 -16 5 -20 8 -21 23 -8 9 7 31 14 49 14 26 1 36 -4 44
-22 l11 -24 -64 7 c-39 4 -66 3 -70 -4 -4 -6 -19 -5 -43 4 -21 7 -47 13 -59
14 -12 0 -25 10 -32 25 -11 23 -9 26 21 38 29 13 32 12 35 -5 2 -12 9 -17 17
-14z"/>
<path d="M4165 1920 c3 -5 10 -10 16 -10 5 0 9 5 9 10 0 6 -7 10 -16 10 -8 0
-12 -4 -9 -10z"/>
<path d="M5985 1920 c-3 -5 -1 -10 4 -10 6 0 11 5 11 10 0 6 -2 10 -4 10 -3 0
-8 -4 -11 -10z"/>
<path d="M4010 1912 c0 -4 32 -82 71 -173 l70 -167 46 -7 c48 -7 67 4 55 33
-3 10 -1 13 6 8 8 -5 12 1 12 17 0 18 -8 28 -27 36 -51 21 -77 40 -85 61 -8
23 0 73 11 67 3 -1 23 -11 44 -20 28 -13 37 -23 37 -42 0 -14 8 -29 20 -35 25
-13 27 -31 3 -24 -17 5 -17 5 0 -6 9 -6 41 -10 69 -8 l53 3 -30 28 c-17 15
-42 31 -58 34 -15 3 -30 10 -33 15 -4 6 1 8 12 4 11 -3 26 -1 34 5 12 9 12 10
-3 5 -10 -3 -25 1 -33 9 -17 16 -13 18 31 15 26 -2 28 0 15 15 -9 10 -22 14
-37 10 -13 -3 -23 -1 -23 4 0 5 -9 11 -20 14 -39 10 -22 30 20 24 45 -6 51 4
18 27 -28 20 -43 20 -63 0 -15 -15 -20 -15 -55 -1 -31 12 -40 12 -42 2 -4 -18
-73 14 -73 34 0 14 -45 27 -45 13z"/>
<path d="M4080 1910 c0 -5 5 -10 10 -10 6 0 10 5 10 10 0 6 -4 10 -10 10 -5 0
-10 -4 -10 -10z"/>
<path d="M3167 1903 c-12 -11 -8 -23 8 -23 8 0 15 7 15 15 0 16 -12 20 -23 8z"/>
<path d="M4650 1869 c0 -5 5 -7 10 -4 6 3 10 8 10 11 0 2 -4 4 -10 4 -5 0 -10
-5 -10 -11z"/>
<path d="M4557 1848 c7 -26 23 -33 39 -16 12 12 10 15 -15 24 -25 10 -28 9
-24 -8z"/>
<path d="M6520 1850 c0 -5 5 -10 10 -10 6 0 10 5 10 10 0 6 -4 10 -10 10 -5 0
-10 -4 -10 -10z"/>
<path d="M4725 1799 c-11 -16 -1 -19 13 -3 7 8 8 14 3 14 -5 0 -13 -5 -16 -11z"/>
<path d="M4770 1773 c0 -5 -9 -19 -21 -32 -12 -12 -18 -25 -14 -29 3 -3 10 -1
14 6 4 8 17 15 27 16 21 3 26 37 7 44 -7 2 -13 0 -13 -5z"/>
<path d="M6603 1758 c2 -7 12 -13 22 -13 10 0 20 6 23 13 2 7 -6 12 -23 12
-17 0 -25 -5 -22 -12z"/>
<path d="M4678 1743 c6 -2 18 -2 25 0 6 3 1 5 -13 5 -14 0 -19 -2 -12 -5z"/>
<path d="M4690 1693 c-9 -2 -21 -17 -29 -34 -12 -28 -11 -37 21 -112 l35 -82
142 -28 c78 -16 145 -27 147 -24 3 3 -6 28 -20 56 -18 36 -32 51 -46 51 -11 0
-20 5 -20 11 0 5 4 8 9 5 5 -3 12 1 15 10 9 23 8 24 -15 24 -18 0 -19 2 -9 15
10 13 9 15 -9 15 -11 0 -21 5 -21 10 0 6 5 10 10 10 6 0 10 4 10 9 0 5 -11 9
-25 9 -13 0 -41 7 -60 16 -20 10 -44 14 -55 11 -21 -7 -27 4 -10 21 10 10 -34
14 -70 7z"/>
<path d="M4365 1610 c3 -5 11 -10 16 -10 6 0 7 5 4 10 -3 6 -11 10 -16 10 -6
0 -7 -4 -4 -10z"/>
<path d="M4286 1592 c-7 -12 40 -36 54 -27 8 5 6 11 -7 21 -21 15 -39 18 -47
6z"/>
<path d="M4366 1563 c-33 -18 -25 -26 37 -37 41 -8 41 -8 27 28 -11 30 -23 32
-64 9z"/>
</g>
</svg>
